REM DIRINDEX 1\2,1\3
REM DIRNAME folder01,folder02,folder03
TITLE ""
FILE "Track83.mp3" MP3
  TRACK 01 AUDIO
    TITLE "2:cjc103_756"
    INDEX 01 00:00:00
  TRACK 02 AUDIO
    TITLE "0:"
    INDEX 01 00:01:54
  TRACK 03 AUDIO
    TITLE "3:cjc103_757"
    INDEX 01 00:02:42
  TRACK 04 AUDIO
    TITLE "0:"
    INDEX 01 00:04:21
  TRACK 05 AUDIO
    TITLE "3:cjc103_758"
    INDEX 01 00:05:57
  TRACK 06 AUDIO
    TITLE "0:"
    INDEX 01 00:08:09
